<?xml version="1.0" encoding="utf-8"?>
<!DOCTYPE svg PUBLIC "-//W3C//DTD SVG 1.1//EN" "http://www.w3.org/Graphics/SVG/1.1/DTD/svg11.dtd">
<svg version="1.1" id="Layer_1" xmlns="http://www.w3.org/2000/svg" xmlns:xlink="http://www.w3.org/1999/xlink" x="0px" y="0px"
	 width="720px" height="720px" viewBox="0 0 720 720" enable-background="new 0 0 720 720" xml:space="preserve">
<g id="Layer_2">
	<path fill="#F0EBE9" d="M672.05,359.963c4.688,171.484-130.471,321.484-312.109,317.578
		C178.3,673.635,47.832,535.356,47.832,359.963c0-175.393,139.734-317.578,312.107-317.578S667.362,188.479,672.05,359.963z"/>
</g>
<g id="Layer_3">
	<path fill="#DE3053" d="M215.019,444.729c0,0-139.771,10.084-131.25-128.904c0,0,5.469-86.719,60.156-147.656
		c0,0,12.408-15.36,27.323-15.353c0,0,26.667-0.398,38.302,41.134c0,0,8.594,28.125,28.906,31.25c0,0,17.969,6.25,57.029-42.188
		c0,0,21.094-26.91,37.5-26.826c0,0,24.219-0.083,25.781,51.045c0,0,13.281,135.938-13.281,181.25
		C345.488,388.479,319.705,442.385,215.019,444.729z"/>
</g>
<g id="Layer_4">
	<path fill="#061C92" d="M525.246,206.146c0,0-31.333-46-9.333-66.667c0,0,30.419-26.479,71.087,35.521
		c0,0,58,80.667,62.666,168.667c0,0,2.913,116.479-49.087,180.479c0,0-82.245,124.854-206.666,129.332
		c0,0-204.913,5.521-224.246-98.479c0,0-12.667-68.001,110.248-86.188c0,0,87.664-9.334,121.998-62c0,0,32.666-46.813,97.666-20.334
		c0,0,53,15,58.334-79.667C557.913,306.812,557.913,261.479,525.246,206.146z"/>
</g>
</svg>
