<svg class="img-fluid" id="outputsvg" xmlns="http://www.w3.org/2000/svg" width="720" height="720" viewBox="0 0 720 720"><g id="lUAx8uRtHKdkNqOSnmkPPo" fill="rgb(240,235,233)" style="transform: none;"><g><path id="p1HPXmaloH" d="M287 670 c-92 -23 -178 -96 -219 -185 -31 -69 -32 -190 -1 -257 62 -135 204 -212 343 -186 30 5 68 17 83 25 49 25 117 95 145 148 23 43 27 62 27 140 0 105 -21 157 -87 226 -71 73 -198 112 -291 89z m181 -91 c86 -43 142 -129 141 -219 0 -53 -17 -105 -18 -57 -2 64 -53 127 -103 127 -8 0 -38 16 -68 35 -30 19 -75 37 -100 41 -55 8 -103 31 -98 47 2 7 24 22 48 35 63 32 122 29 198 -9z m-198 -184 c42 -22 60 -63 60 -136 0 -62 0 -62 -21 -35 -17 22 -28 26 -69 26 -43 0 -51 -3 -63 -26 -13 -26 -13 -26 -41 35 -25 57 -26 62 -11 90 28 55 90 74 145 46z"></path></g></g><g id="l16w8aaiMCkhjOET6Nj3Qih" fill="rgb(6,28,146)" style="transform: none;"><g><path id="pKBhezq2Q" d="M243 621 c-107 -49 -83 -126 47 -145 25 -4 70 -22 100 -41 30 -19 60 -35 68 -35 29 0 74 -33 87 -64 16 -37 11 -66 -24 -133 -19 -38 -19 -43 -5 -58 24 -24 52 -1 91 74 29 55 33 72 33 140 0 67 -4 87 -31 139 -32 64 -58 89 -131 122 -59 27 -177 27 -235 1z"></path></g></g><g id="l7P4UdcG9qHdcPMNg4CdHCI" fill="rgb(222,48,83)" style="transform: none;"><g><path id="pVZBBPbCM" d="M138 424 c-34 -18 -58 -62 -58 -106 0 -34 49 -150 69 -162 20 -13 46 3 58 34 15 41 44 39 81 -8 26 -31 34 -35 49 -26 15 9 18 27 21 102 3 104 -10 142 -58 167 -37 19 -127 19 -162 -1z"></path></g></g></svg>