
<?xml version="1.0" encoding="UTF-8"?>
<svg width="752pt" height="752pt" version="1.1" viewBox="200 190 400 400" xmlns="http://www.w3.org/2000/svg">
 <g fill-rule="evenodd">
  <path d="m384.56 553.15c1.5156-4.4102 1.7539-9.3828 0.6875-12.973-0.49219-1.6758-1.2656-3.1016-2.2227-4.3086-1.2461-1.8945-2.9414-3.4297-5.1133-4.3555-1.0117-0.14844-1.9922-0.26172-2.9414-0.33594-2.8008-0.55859-5.8125-0.41016-8.6484 0.36328-7.9141 1.6016-11.973 7.0625-12.516 16.039 0.71875 1.5586 1.4336 3.125 2.2031 4.6367 0.35156 0.91797 0.76172 1.7578 1.2227 2.4531 0.3125 0.47266 0.66406 0.93359 1.0234 1.3867 2 2.8828 4.5547 5.2109 8.3672 6.2812 3.2031 1.25 6.7188 1.5195 10.148 0.17187 0.29297-0.11719 0.57812-0.25391 0.86328-0.39453 0.097657-0.050781 0.19531-0.097656 0.28906-0.15625 0.17578-0.097656 0.34766-0.19531 0.51562-0.29688 0.11328-0.074218 0.23828-0.14844 0.35156-0.22266 0.089844-0.0625 0.17188-0.12891 0.26172-0.1875 2.4062-1.7227 4.2148-4.4414 5.332-7.5664 0.015626-0.027344 0.023438-0.0625 0.03125-0.089844 0.039063-0.15234 0.097657-0.29297 0.14453-0.44531z"/>
  <path d="m397.59 215.84c8.2344-2.668 11.582-12.504 8.7383-19.551-1.3086-3.2539-3.9414-5.9141-8.0117-7.0078-10.773-2.8945-22.016 3.8516-20.379 15.922 1.1523 8.5234 12.328 13.008 19.652 10.637z"/>
  <path d="m555.87 288.62c-7.4883-3.3984-15.457-3.7891-23.375-1.7578-9.375 2.4062-17.742 10.5-26.801 12.363-12.48 2.5664-24.781-5.9531-28.926-17.602-6.3789-17.926 9.8516-33.547 6.1797-51.238-2.8711-13.824-19.27-23.883-32.895-24.039-15.676-0.17578-26.938 13.758-35.766 24.977-6.0859 7.7422-12.949 17.848-23.977 18.02-12.758 0.19922-20.332-13.465-26.344-22.707-9.3359-14.355-17.594-32.742-37.16-32.777-14.113-0.023437-29.488 10.086-32.645 24.023-3.9844 17.586 6.3398 35.641 4.832 53.371-1.6367 19.129-21.918 16.586-35.859 14.398-19.379-3.0391-36.348 7.9414-34.125 29.484 1.6133 15.617 14.66 20.129 24.844 29.461 7.8906 7.2344 11.836 23.238 0.53516 29.801-17.555 10.195-46.77 2.5156-52.09 28.543-3.2617 15.98 4.9258 33.117 20.137 39.344 19.176 7.8516 36.324-6.6367 54.883-7.9609 22.742-1.625 28.387 19.387 20.062 37.621-5.6445 12.359-11.684 23.633-8.9961 37.738 3.3398 17.57 22.277 25.898 38.355 25.27 20.086-0.78125 21.516-15.586 31.805-28.855 13.531-17.457 29.922-5.4453 38.645 8.5156 7.3945 11.828 13.574 25.598 28.09 30.02 16.422 5 35.574-6.168 43.02-20.82 8.0312-15.809-0.73438-30.5-3.2109-46.344-3.2539-20.82 23.105-13.262 32.352-7.2773 29.898 19.332 78.453-3.7383 65.113-42.23-7.5078-21.652-37.777-19.625-50.023-36.73-6.6758-9.3359-4.8242-18.727 1.5312-25.152 3.2695-3.3047 7.7227-5.8242 12.82-7.1523 19.246-5.0039 45.086-4.7891 49.758-29.543 3.1289-16.617-5.4414-33.812-20.77-40.762z"/>
  <path d="m511.16 265.86c22.184 14.16 47.441-33.613 27.324-38.941-1.375-0.36328-2.8711-0.42187-4.4414-0.21875-15.508 1.9883-38.406 29.254-22.883 39.16z"/>
  <path d="m257.5 262.02c5.7305-1.2734 9.1016-8.6953 8.6328-13.895-1.0508-11.66-18.375-12.871-23.109-3.0078-1.1602 2.4102-1.2969 4.9023-0.70703 7.2109 1.5977 6.2383 8.5391 11.168 15.184 9.6914z"/>
  <path d="m225.11 345.77c-0.875-3.3516-6.2227-7.8359-9.0586-9.625-3.1445-1.9844-6.8398-3.0078-10.41-3.918-6.8984-1.7578-15.066-2.9023-21.547 0.86719-6.207 3.6133-9.6758 11.176-9.3398 18.211 0.97656 20.277 31.441 17.285 42.898 9.0273 4.2031-3.0273 8.8828-9.0547 7.457-14.562z"/>
  <path d="m499.95 513.64c0.027344 14.43 24.84 19.883 28.262 5.1953 4.4648-19.168-28.293-27.105-28.262-5.1953z"/>
 </g>
</svg>
